<?xml version="1.0" encoding="UTF-8" standalone="no"?>
<svg width="14px" height="12px" viewBox="0 0 14 12" version="1.1" xmlns="http://www.w3.org/2000/svg" xmlns:xlink="http://www.w3.org/1999/xlink">
    <!-- Generator: Sketch 3.7.2 (28276) - http://www.bohemiancoding.com/sketch -->
    <title>Star</title>
    <desc>Created with Sketch.</desc>
    <defs></defs>
    <g id="1.0-Gym-App" stroke="none" stroke-width="1" fill="none" fill-rule="evenodd">
        <g id="Home---Prototype" transform="translate(-313.000000, -282.000000)" fill="#FFFFFF">
            <g id="Card-1" transform="translate(25.000000, 263.000000)">
                <g id="Feedback-card">
                    <g id="Rating" transform="translate(253.000000, 13.000000)">
                        <g id="Group" transform="translate(22.000000, 0.000000)">
                            <path d="M21.9419768,9.39549615 C22.0185964,9.54626749 22.1718356,9.65934599 22.3506146,9.68447455 L25.8368064,10.1870457 C26.2709841,10.2498671 26.4497632,10.7775667 26.1305148,11.0916737 L23.6020681,13.5040151 C23.4743687,13.6296579 23.423289,13.8055578 23.4488289,13.9688934 L24.0490157,17.386377 C24.1256353,17.8135625 23.6659177,18.1402337 23.2700498,17.9392052 L20.1541861,16.3309776 C20.0009469,16.255592 19.8093979,16.255592 19.6561587,16.3309776 L16.540295,17.9392052 C16.1444271,18.1402337 15.6847095,17.8135625 15.7613291,17.386377 L16.361516,13.9688934 C16.3870558,13.7929935 16.3359761,13.6170936 16.2082768,13.5040151 L13.67983,11.0916737 C13.3605817,10.790131 13.5393607,10.2498671 13.9735385,10.1870457 L17.4597302,9.68447455 C17.6385093,9.65934599 17.7789785,9.54626749 17.8683681,9.39549615 L19.4262999,6.29211947 C19.6178489,5.90262684 20.1924959,5.90262684 20.3840449,6.29211947 L21.9419768,9.39549615 Z" id="Star"></path>
                        </g>
                    </g>
                </g>
            </g>
        </g>
    </g>
</svg>